<?xml version="1.0" ?><svg viewBox="0 0 64 64" xmlns="http://www.w3.org/2000/svg"><g data-name="9-notification" id="_9-notification"><circle cx="32" cy="57" r="6" style="fill:#dbb55c"/><circle cx="32" cy="5" r="4" style="fill:#f0dc62"/><path d="M62,55V51S52,45,52,31C52,8,37,5,32,5S12,8,12,31C12,45,2,51,2,51v4a2,2,0,0,0,2,2H60A2,2,0,0,0,62,55Z" style="fill:#fcea81"/><path d="M2,51H62a0,0,0,0,1,0,0v4a2,2,0,0,1-2,2H4a2,2,0,0,1-2-2V51A0,0,0,0,1,2,51Z" style="fill:#f0dc62"/><path d="M62.515,50.143C62.419,50.085,53,44.28,53,31,53,12.125,43.248,6.434,36.972,4.727a4.978,4.978,0,0,0-9.944,0C20.752,6.434,11,12.125,11,31c0,13.23-9.421,19.086-9.516,19.144A1,1,0,0,0,1,51v4a3,3,0,0,0,3,3H25.08a6.991,6.991,0,0,0,13.84,0H60a3,3,0,0,0,3-3V51A1,1,0,0,0,62.515,50.143ZM32,2a3,3,0,0,1,2.9,2.272A18.16,18.16,0,0,0,32,4a18.16,18.16,0,0,0-2.9.272A3,3,0,0,1,32,2Zm0,60a5.009,5.009,0,0,1-4.9-4h9.8A5.009,5.009,0,0,1,32,62Zm29-7a1,1,0,0,1-1,1H4a1,1,0,0,1-1-1V52H56a1,1,0,0,0,0-2H4.918A24.959,24.959,0,0,0,13,31C13,6.7,30.055,6,32,6s19,.7,19,25c0,12.774,7.913,19.1,10,20.54Z"/><path d="M47.247,23.07a1,1,0,0,0,.723-1.216c-1.3-5.094-3.794-8.884-7.422-11.263a1,1,0,0,0-1.1,1.673c3.2,2.1,5.41,5.489,6.579,10.084a1,1,0,0,0,1.216.722Z"/><rect height="2" width="2" x="47" y="25"/></g></svg>