<?xml version="1.0" encoding="UTF-8"?>
<svg id="Layer_1" data-name="Layer 1" xmlns="http://www.w3.org/2000/svg" viewBox="0 0 154.01 28.95">
  <defs>
    <style>
      .cls-1 {
        fill: #f58436;
      }

      .cls-2 {
        fill: #98cced;
      }
    </style>
  </defs>
  <g>
    <path class="cls-2" d="M8.45,25.24c0,2.47-1.41,3.71-4.22,3.71s-4.22-1.24-4.22-3.71V3.86C0,1.38,1.41,.15,4.22,.15s4.22,1.24,4.22,3.71V25.24Z"/>
    <path class="cls-2" d="M27.99,12.99V3.86c0-2.48,1.41-3.71,4.22-3.71s4.22,1.24,4.22,3.71V25.24c0,2.47-1.41,3.71-4.22,3.71-1.56,0-2.8-.54-3.71-1.62l-9.47-11.27v9.17c0,2.47-1.41,3.71-4.22,3.71s-4.22-1.24-4.22-3.71V3.86C10.58,1.4,11.99,.16,14.81,.15c1.81-.01,3.1,.57,3.88,1.75l9.3,11.09Z"/>
    <path class="cls-2" d="M47.02,25.24c0,2.47-1.41,3.71-4.22,3.71s-4.22-1.24-4.22-3.71V3.86c0-2.48,1.41-3.71,4.22-3.71s4.22,1.24,4.22,3.71V25.24Z"/>
  </g>
  <g>
    <path class="cls-1" d="M62.43,22.89l3.03-17.23h3.23l-3.03,17.23h-3.23Zm0,0l.52-2.96h11.82l-.52,2.96h-11.82Z"/>
    <path class="cls-1" d="M82.61,23.13c-1.71,0-3.05-.56-4.02-1.69-.96-1.12-1.44-2.69-1.44-4.7,0-2.38,.33-4.41,1-6.1,.66-1.69,1.62-2.99,2.87-3.88,1.25-.9,2.75-1.35,4.5-1.35s3.01,.55,3.96,1.65c.95,1.1,1.42,2.63,1.42,4.6,0,2.4-.33,4.46-.98,6.17s-1.6,3.02-2.83,3.93c-1.23,.91-2.72,1.37-4.46,1.37Zm.44-3.06c.94,0,1.74-.32,2.41-.96,.67-.64,1.18-1.57,1.53-2.78,.36-1.21,.53-2.66,.53-4.36,0-1.1-.21-1.96-.64-2.57-.43-.61-1.03-.92-1.8-.92-.95,0-1.77,.32-2.46,.95s-1.21,1.54-1.57,2.73c-.36,1.19-.55,2.62-.55,4.3,0,1.14,.22,2.03,.67,2.67,.45,.64,1.07,.96,1.86,.96Z"/>
    <path class="cls-1" d="M91.43,22.89l3.03-17.23h3.23l-3.03,17.23h-3.23Zm2.1-4.03l.16-3.13c1.97-.27,3.61-.89,4.92-1.83,1.31-.95,2.35-2.13,3.12-3.55s1.3-2.98,1.6-4.69h3.25c-.4,2.3-1.16,4.39-2.28,6.28-1.12,1.89-2.58,3.44-4.39,4.66-1.8,1.22-3.93,1.97-6.38,2.26Zm6.93,4.03l-2.31-7.55,3.07-1.24,2.9,8.79h-3.66Z"/>
    <path class="cls-1" d="M106.11,22.89l3.03-17.23h3.23l-3.03,17.23h-3.23Zm0,0l.53-2.96h11.81l-.52,2.96h-11.82Zm1.26-7.15l.52-2.96h9.63l-.52,2.96h-9.63Zm1.25-7.12l.52-2.96h11.82l-.52,2.96h-11.82Z"/>
    <path class="cls-1" d="M120.43,22.89l3.03-17.23h3.23l-3.03,17.23h-3.23Zm1.59-5.1l.4-3.03h1.36c2.47,0,4.33-.34,5.6-1.01,1.27-.67,1.9-1.66,1.9-2.97,0-.76-.32-1.33-.96-1.72-.64-.39-1.58-.58-2.83-.58-1.8,0-3.27,.08-4.43,.24l.4-3.06c1.09-.16,2.49-.24,4.19-.24,2.3,0,4.04,.44,5.22,1.32,1.18,.88,1.77,2.17,1.77,3.89,0,2.35-.95,4.14-2.85,5.35s-4.7,1.82-8.41,1.82h-1.36Zm7.39,5.1l-2.38-7.64h3.46l2.55,7.64h-3.63Z"/>
    <path class="cls-2" d="M141.12,23.13c-.61,0-1.14-.22-1.57-.65s-.64-.95-.64-1.56,.21-1.14,.64-1.56c.43-.43,.95-.64,1.57-.64s1.14,.21,1.57,.64,.64,.95,.64,1.56-.21,1.13-.64,1.56c-.43,.43-.95,.65-1.57,.65Z"/>
  </g>
  <path class="cls-1" d="M154.01,28.55H53.71V0H127.23c14.77,0,26.78,12.01,26.78,26.78v1.78Zm-96.75-3.55h93.13c-.91-11.98-10.95-21.45-23.16-21.45H57.26V25Z"/>
</svg>